<svg viewBox="-1 -1 502 102" xmlns="http://www.w3.org/2000/svg" font-family="IBM Plex Sans" font-weight="300" width="500" height="100" fill="none" stroke="black">
<path d="M 0,49.98 C 1.7,49.98 6.8,49.97 10.2,49.97 C 13.61,49.97 17.01,49.96 20.41,49.97 C 23.81,49.97 27.21,49.98 30.61,50 C 34.01,50.02 37.41,50.04 40.82,50.09 C 44.22,50.14 47.62,50.2 51.02,50.28 C 54.42,50.36 57.82,50.47 61.22,50.55 C 64.63,50.64 68.03,50.76 71.43,50.8 C 74.83,50.84 78.23,50.9 81.63,50.8 C 85.03,50.7 88.44,50.55 91.84,50.2 C 95.24,49.86 98.64,49.37 102.04,48.73 C 105.44,48.08 108.84,47.2 112.24,46.36 C 115.65,45.51 119.05,44.4 122.45,43.65 C 125.85,42.9 129.25,42.02 132.65,41.86 C 136.05,41.7 139.46,41.74 142.86,42.69 C 146.26,43.64 149.66,45.23 153.06,47.57 C 156.46,49.9 159.86,53.24 163.27,56.68 C 166.67,60.11 170.07,64.59 173.47,68.17 C 176.87,71.75 180.27,75.87 183.67,78.15 C 187.07,80.44 190.48,82.27 193.88,81.88 C 197.28,81.48 200.68,79.49 204.08,75.75 C 207.48,72.02 210.88,65.95 214.29,59.47 C 217.69,52.99 221.09,44.29 224.49,36.9 C 227.89,29.51 231.29,20.98 234.69,15.13 C 238.1,9.28 241.5,4.02 244.9,1.79 C 248.3,-0.43 251.7,-0.43 255.1,1.79 C 258.5,4.02 261.9,9.28 265.31,15.13 C 268.71,20.98 272.11,29.51 275.51,36.9 C 278.91,44.29 282.31,52.99 285.71,59.47 C 289.12,65.95 292.52,72.02 295.92,75.75 C 299.32,79.49 302.72,81.48 306.12,81.88 C 309.52,82.27 312.93,80.44 316.33,78.15 C 319.73,75.87 323.13,71.75 326.53,68.17 C 329.93,64.59 333.33,60.11 336.73,56.68 C 340.14,53.24 343.54,49.9 346.94,47.57 C 350.34,45.23 353.74,43.64 357.14,42.69 C 360.54,41.74 363.95,41.7 367.35,41.86 C 370.75,42.02 374.15,42.9 377.55,43.65 C 380.95,44.4 384.35,45.51 387.76,46.36 C 391.16,47.2 394.56,48.08 397.96,48.73 C 401.36,49.37 404.76,49.86 408.16,50.2 C 411.56,50.55 414.97,50.7 418.37,50.8 C 421.77,50.9 425.17,50.84 428.57,50.8 C 431.97,50.76 435.37,50.64 438.78,50.55 C 442.18,50.47 445.58,50.36 448.98,50.28 C 452.38,50.2 455.78,50.14 459.18,50.09 C 462.59,50.04 465.99,50.02 469.39,50 C 472.79,49.98 476.19,49.97 479.59,49.97 C 482.99,49.96 486.39,49.97 489.8,49.97 C 493.2,49.97 498.3,49.98 500,49.98" stroke="rgba(255, 13, 87, 1)" stroke-width="2" />
<path d="M 0,49.98 C 1.7,49.98 6.8,49.97 10.2,49.97 C 13.61,49.96 17.01,49.95 20.41,49.95 C 23.81,49.95 27.21,49.94 30.61,49.96 C 34.01,49.97 37.41,49.99 40.82,50.03 C 44.22,50.07 47.62,50.12 51.02,50.2 C 54.42,50.28 57.82,50.39 61.22,50.51 C 64.63,50.62 68.03,50.78 71.43,50.89 C 74.83,50.99 78.23,51.13 81.63,51.14 C 85.03,51.14 88.44,51.14 91.84,50.91 C 95.24,50.69 98.64,50.36 102.04,49.79 C 105.44,49.22 108.84,48.42 112.24,47.51 C 115.65,46.59 119.05,45.36 122.45,44.31 C 125.85,43.27 129.25,41.95 132.65,41.23 C 136.05,40.51 139.46,39.77 142.86,39.99 C 146.26,40.22 149.66,40.88 153.06,42.56 C 156.46,44.24 159.86,46.87 163.27,50.07 C 166.67,53.27 170.07,57.7 173.47,61.78 C 176.87,65.87 180.27,70.95 183.67,74.58 C 187.07,78.21 190.48,82.02 193.88,83.57 C 197.28,85.13 200.68,85.65 204.08,83.9 C 207.48,82.15 210.88,78.28 214.29,73.09 C 217.69,67.9 221.09,60.17 224.49,52.79 C 227.89,45.4 231.29,36.08 234.69,28.78 C 238.1,21.49 241.5,13.76 244.9,9.02 C 248.3,4.29 251.7,0.93 255.1,0.38 C 258.5,-0.18 261.9,1.98 265.31,5.68 C 268.71,9.38 272.11,16.08 275.51,22.59 C 278.91,29.09 282.31,37.72 285.71,44.71 C 289.12,51.69 292.52,59.23 295.92,64.5 C 299.32,69.77 302.72,74.03 306.12,76.33 C 309.52,78.64 312.93,78.99 316.33,78.33 C 319.73,77.67 323.13,75 326.53,72.36 C 329.93,69.72 333.33,65.73 336.73,62.48 C 340.14,59.23 343.54,55.56 346.94,52.86 C 350.34,50.16 353.74,47.83 357.14,46.27 C 360.54,44.7 363.95,43.9 367.35,43.48 C 370.75,43.06 374.15,43.39 377.55,43.75 C 380.95,44.11 384.35,44.97 387.76,45.64 C 391.16,46.32 394.56,47.18 397.96,47.82 C 401.36,48.46 404.76,49.05 408.16,49.47 C 411.56,49.89 414.97,50.17 418.37,50.36 C 421.77,50.55 425.17,50.59 428.57,50.62 C 431.97,50.65 435.37,50.58 438.78,50.53 C 442.18,50.48 445.58,50.39 448.98,50.33 C 452.38,50.26 455.78,50.2 459.18,50.15 C 462.59,50.1 465.99,50.06 469.39,50.04 C 472.79,50.01 476.19,50 479.59,49.99 C 482.99,49.98 486.39,49.98 489.8,49.98 C 493.2,49.98 498.3,49.98 500,49.98" stroke="rgba(230, 26.67, 102.78, 1)" stroke-width="2" />
<path d="M 0,49.99 C 1.7,49.98 6.8,49.97 10.2,49.97 C 13.61,49.96 17.01,49.95 20.41,49.94 C 23.81,49.93 27.21,49.92 30.61,49.92 C 34.01,49.93 37.41,49.93 40.82,49.96 C 44.22,49.99 47.62,50.02 51.02,50.1 C 54.42,50.17 57.82,50.27 61.22,50.4 C 64.63,50.53 68.03,50.71 71.43,50.86 C 74.83,51.02 78.23,51.24 81.63,51.34 C 85.03,51.45 88.44,51.59 91.84,51.51 C 95.24,51.43 98.64,51.3 102.04,50.87 C 105.44,50.45 108.84,49.83 112.24,48.96 C 115.65,48.09 119.05,46.88 122.45,45.66 C 125.85,44.44 129.25,42.84 132.65,41.65 C 136.05,40.46 139.46,39.04 142.86,38.51 C 146.26,37.97 149.66,37.63 153.06,38.46 C 156.46,39.28 159.86,40.87 163.27,43.45 C 166.67,46.04 170.07,49.88 173.47,53.98 C 176.87,58.07 180.27,63.5 183.67,68.04 C 187.07,72.58 190.48,77.9 193.88,81.22 C 197.28,84.54 200.68,87.51 204.08,87.96 C 207.48,88.41 210.88,87.19 214.29,83.93 C 217.69,80.66 221.09,74.83 224.49,68.34 C 227.89,61.85 231.29,52.85 234.69,44.99 C 238.1,37.14 241.5,27.87 244.9,21.2 C 248.3,14.52 251.7,8.22 255.1,4.95 C 258.5,1.68 261.9,0.48 265.31,1.58 C 268.71,2.69 272.11,6.75 275.51,11.58 C 278.91,16.42 282.31,23.93 285.71,30.58 C 289.12,37.24 292.52,45.33 295.92,51.5 C 299.32,57.67 302.72,63.68 306.12,67.61 C 309.52,71.55 312.93,74.05 316.33,75.09 C 319.73,76.13 323.13,75.24 326.53,73.86 C 329.93,72.47 333.33,69.45 336.73,66.77 C 340.14,64.1 343.54,60.56 346.94,57.81 C 350.34,55.07 353.74,52.28 357.14,50.29 C 360.54,48.3 363.95,46.83 367.35,45.88 C 370.75,44.94 374.15,44.68 377.55,44.61 C 380.95,44.54 384.35,45.03 387.76,45.46 C 391.16,45.89 394.56,46.62 397.96,47.17 C 401.36,47.73 404.76,48.35 408.16,48.8 C 411.56,49.25 414.97,49.62 418.37,49.88 C 421.77,50.14 425.17,50.27 428.57,50.37 C 431.97,50.46 435.37,50.45 438.78,50.45 C 442.18,50.44 445.58,50.38 448.98,50.33 C 452.38,50.29 455.78,50.23 459.18,50.18 C 462.59,50.14 465.99,50.1 469.39,50.07 C 472.79,50.04 476.19,50.02 479.59,50.01 C 482.99,50 486.39,49.99 489.8,49.99 C 493.2,49.98 498.3,49.99 500,49.99" stroke="rgba(205, 40.33, 118.56, 1)" stroke-width="2" />
<path d="M 0,49.99 C 1.7,49.99 6.8,49.98 10.2,49.97 C 13.61,49.96 17.01,49.95 20.41,49.94 C 23.81,49.92 27.21,49.91 30.61,49.9 C 34.01,49.89 37.41,49.88 40.82,49.89 C 44.22,49.91 47.62,49.92 51.02,49.98 C 54.42,50.04 57.82,50.12 61.22,50.25 C 64.63,50.37 68.03,50.55 71.43,50.74 C 74.83,50.93 78.23,51.19 81.63,51.39 C 85.03,51.59 88.44,51.85 91.84,51.93 C 95.24,52.01 98.64,52.09 102.04,51.86 C 105.44,51.62 108.84,51.25 112.24,50.53 C 115.65,49.81 119.05,48.78 122.45,47.53 C 125.85,46.29 129.25,44.6 132.65,43.08 C 136.05,41.56 139.46,39.63 142.86,38.41 C 146.26,37.18 149.66,35.87 153.06,35.74 C 156.46,35.61 159.86,35.97 163.27,37.63 C 166.67,39.29 170.07,42.07 173.47,45.69 C 176.87,49.31 180.27,54.43 183.67,59.33 C 187.07,64.23 190.48,70.42 193.88,75.1 C 197.28,79.79 200.68,84.84 204.08,87.44 C 207.48,90.03 210.88,91.63 214.29,90.67 C 217.69,89.71 221.09,86.49 224.49,81.68 C 227.89,76.87 231.29,69.28 234.69,61.81 C 238.1,54.34 241.5,44.65 244.9,36.84 C 248.3,29.03 251.7,20.54 255.1,14.95 C 258.5,9.36 261.9,4.94 265.31,3.32 C 268.71,1.7 272.11,2.63 275.51,5.21 C 278.91,7.79 282.31,13.28 285.71,18.8 C 289.12,24.32 292.52,31.99 295.92,38.32 C 299.32,44.65 302.72,51.69 306.12,56.77 C 309.52,61.86 312.93,66.21 316.33,68.82 C 319.73,71.44 323.13,72.44 326.53,72.48 C 329.93,72.51 333.33,70.82 336.73,69.05 C 340.14,67.27 343.54,64.28 346.94,61.82 C 350.34,59.36 353.74,56.46 357.14,54.28 C 360.54,52.11 363.95,50.15 367.35,48.78 C 370.75,47.42 374.15,46.61 377.55,46.12 C 380.95,45.62 384.35,45.7 387.76,45.82 C 391.16,45.95 394.56,46.46 397.96,46.87 C 401.36,47.28 404.76,47.85 408.16,48.27 C 411.56,48.7 414.97,49.11 418.37,49.41 C 421.77,49.71 425.17,49.92 428.57,50.07 C 431.97,50.22 435.37,50.27 438.78,50.31 C 442.18,50.35 445.58,50.32 448.98,50.3 C 452.38,50.28 455.78,50.23 459.18,50.2 C 462.59,50.16 465.99,50.13 469.39,50.1 C 472.79,50.07 476.19,50.05 479.59,50.03 C 482.99,50.01 486.39,50.01 489.8,50 C 493.2,49.99 498.3,49.99 500,49.99" stroke="rgba(180, 54, 134.33, 1)" stroke-width="2" />
<path d="M 0,50 C 1.7,49.99 6.8,49.99 10.2,49.98 C 13.61,49.97 17.01,49.96 20.41,49.94 C 23.81,49.93 27.21,49.9 30.61,49.89 C 34.01,49.87 37.41,49.85 40.82,49.84 C 44.22,49.84 47.62,49.83 51.02,49.87 C 54.42,49.9 57.82,49.95 61.22,50.06 C 64.63,50.17 68.03,50.32 71.43,50.52 C 74.83,50.72 78.23,51 81.63,51.26 C 85.03,51.53 88.44,51.89 91.84,52.11 C 95.24,52.34 98.64,52.62 102.04,52.61 C 105.44,52.6 108.84,52.53 112.24,52.05 C 115.65,51.56 119.05,50.82 122.45,49.7 C 125.85,48.59 129.25,47.01 132.65,45.34 C 136.05,43.68 139.46,41.47 142.86,39.7 C 146.26,37.94 149.66,35.81 153.06,34.75 C 156.46,33.68 159.86,32.76 163.27,33.29 C 166.67,33.82 170.07,35.23 173.47,37.92 C 176.87,40.62 180.27,44.82 183.67,49.49 C 187.07,54.16 190.48,60.47 193.88,65.96 C 197.28,71.44 200.68,77.98 204.08,82.4 C 207.48,86.82 210.88,91.04 214.29,92.51 C 217.69,93.97 221.09,93.75 224.49,91.2 C 227.89,88.65 231.29,83.39 234.69,77.2 C 238.1,71.01 241.5,62.08 244.9,54.08 C 248.3,46.07 251.7,36.41 255.1,29.18 C 258.5,21.95 261.9,14.84 265.31,10.69 C 268.71,6.53 272.11,4.23 275.51,4.25 C 278.91,4.26 282.31,7.07 285.71,10.78 C 289.12,14.5 292.52,20.82 295.92,26.54 C 299.32,32.27 302.72,39.49 306.12,45.11 C 309.52,50.74 312.93,56.41 316.33,60.29 C 319.73,64.17 323.13,66.93 326.53,68.38 C 329.93,69.84 333.33,69.69 336.73,69.02 C 340.14,68.36 343.54,66.28 346.94,64.41 C 350.34,62.53 353.74,59.85 357.14,57.76 C 360.54,55.66 363.95,53.44 367.35,51.83 C 370.75,50.22 374.15,48.95 377.55,48.09 C 380.95,47.23 384.35,46.88 387.76,46.69 C 391.16,46.5 394.56,46.73 397.96,46.95 C 401.36,47.16 404.76,47.61 408.16,47.96 C 411.56,48.3 414.97,48.71 418.37,49.01 C 421.77,49.31 425.17,49.57 428.57,49.76 C 431.97,49.95 435.37,50.05 438.78,50.13 C 442.18,50.21 445.58,50.22 448.98,50.23 C 452.38,50.24 455.78,50.21 459.18,50.19 C 462.59,50.17 465.99,50.14 469.39,50.11 C 472.79,50.09 476.19,50.06 479.59,50.05 C 482.99,50.03 486.39,50.02 489.8,50.01 C 493.2,50 498.3,50 500,50" stroke="rgba(155, 67.67, 150.11, 1)" stroke-width="2" />
<path d="M 0,50 C 1.7,50 6.8,50 10.2,49.99 C 13.61,49.98 17.01,49.97 20.41,49.95 C 23.81,49.94 27.21,49.91 30.61,49.89 C 34.01,49.86 37.41,49.83 40.82,49.81 C 44.22,49.79 47.62,49.76 51.02,49.77 C 54.42,49.78 57.82,49.79 61.22,49.87 C 64.63,49.95 68.03,50.05 71.43,50.24 C 74.83,50.43 78.23,50.69 81.63,50.99 C 85.03,51.29 88.44,51.7 91.84,52.04 C 95.24,52.39 98.64,52.84 102.04,53.05 C 105.44,53.27 108.84,53.5 112.24,53.31 C 115.65,53.12 119.05,52.77 122.45,51.91 C 125.85,51.05 129.25,49.78 132.65,48.17 C 136.05,46.56 139.46,44.34 142.86,42.24 C 146.26,40.15 149.66,37.47 153.06,35.59 C 156.46,33.72 159.86,31.64 163.27,30.98 C 166.67,30.31 170.07,30.16 173.47,31.62 C 176.87,33.07 180.27,35.83 183.67,39.71 C 187.07,43.59 190.48,49.26 193.88,54.89 C 197.28,60.51 200.68,67.73 204.08,73.46 C 207.48,79.18 210.88,85.5 214.29,89.22 C 217.69,92.93 221.09,95.74 224.49,95.75 C 227.89,95.77 231.29,93.47 234.69,89.31 C 238.1,85.16 241.5,78.05 244.9,70.82 C 248.3,63.59 251.7,53.93 255.1,45.92 C 258.5,37.92 261.9,28.99 265.31,22.8 C 268.71,16.61 272.11,11.35 275.51,8.8 C 278.91,6.25 282.31,6.03 285.71,7.49 C 289.12,8.96 292.52,13.18 295.92,17.6 C 299.32,22.02 302.72,28.56 306.12,34.04 C 309.52,39.53 312.93,45.84 316.33,50.51 C 319.73,55.18 323.13,59.38 326.53,62.08 C 329.93,64.77 333.33,66.18 336.73,66.71 C 340.14,67.24 343.54,66.32 346.94,65.25 C 350.34,64.19 353.74,62.06 357.14,60.3 C 360.54,58.53 363.95,56.32 367.35,54.66 C 370.75,52.99 374.15,51.41 377.55,50.3 C 380.95,49.18 384.35,48.44 387.76,47.95 C 391.16,47.47 394.56,47.4 397.96,47.39 C 401.36,47.38 404.76,47.66 408.16,47.89 C 411.56,48.11 414.97,48.47 418.37,48.74 C 421.77,49 425.17,49.28 428.57,49.48 C 431.97,49.68 435.37,49.83 438.78,49.94 C 442.18,50.05 445.58,50.1 448.98,50.13 C 452.38,50.17 455.78,50.16 459.18,50.16 C 462.59,50.15 465.99,50.13 469.39,50.11 C 472.79,50.1 476.19,50.07 479.59,50.06 C 482.99,50.04 486.39,50.03 489.8,50.02 C 493.2,50.01 498.3,50.01 500,50" stroke="rgba(130, 81.33, 165.89, 1)" stroke-width="2" />
<path d="M 0,50.01 C 1.7,50.01 6.8,50.01 10.2,50 C 13.61,49.99 17.01,49.99 20.41,49.97 C 23.81,49.95 27.21,49.93 30.61,49.9 C 34.01,49.87 37.41,49.84 40.82,49.8 C 44.22,49.77 47.62,49.72 51.02,49.7 C 54.42,49.68 57.82,49.65 61.22,49.69 C 64.63,49.73 68.03,49.78 71.43,49.93 C 74.83,50.08 78.23,50.29 81.63,50.59 C 85.03,50.89 88.44,51.3 91.84,51.73 C 95.24,52.15 98.64,52.72 102.04,53.13 C 105.44,53.54 108.84,54.05 112.24,54.18 C 115.65,54.3 119.05,54.38 122.45,53.88 C 125.85,53.39 129.25,52.58 132.65,51.22 C 136.05,49.85 139.46,47.89 142.86,45.72 C 146.26,43.54 149.66,40.64 153.06,38.18 C 156.46,35.72 159.86,32.73 163.27,30.95 C 166.67,29.18 170.07,27.49 173.47,27.52 C 176.87,27.56 180.27,28.56 183.67,31.18 C 187.07,33.79 190.48,38.14 193.88,43.23 C 197.28,48.31 200.68,55.35 204.08,61.68 C 207.48,68.01 210.88,75.68 214.29,81.2 C 217.69,86.72 221.09,92.21 224.49,94.79 C 227.89,97.37 231.29,98.3 234.69,96.68 C 238.1,95.06 241.5,90.64 244.9,85.05 C 248.3,79.46 251.7,70.97 255.1,63.16 C 258.5,55.35 261.9,45.66 265.31,38.19 C 268.71,30.72 272.11,23.13 275.51,18.32 C 278.91,13.51 282.31,10.29 285.71,9.33 C 289.12,8.37 292.52,9.97 295.92,12.56 C 299.32,15.16 302.72,20.21 306.12,24.9 C 309.52,29.58 312.93,35.77 316.33,40.67 C 319.73,45.57 323.13,50.69 326.53,54.31 C 329.93,57.93 333.33,60.71 336.73,62.37 C 340.14,64.03 343.54,64.39 346.94,64.26 C 350.34,64.13 353.74,62.82 357.14,61.59 C 360.54,60.37 363.95,58.44 367.35,56.92 C 370.75,55.4 374.15,53.71 377.55,52.47 C 380.95,51.22 384.35,50.19 387.76,49.47 C 391.16,48.75 394.56,48.38 397.96,48.14 C 401.36,47.91 404.76,47.99 408.16,48.07 C 411.56,48.15 414.97,48.41 418.37,48.61 C 421.77,48.81 425.17,49.07 428.57,49.26 C 431.97,49.45 435.37,49.63 438.78,49.75 C 442.18,49.88 445.58,49.96 448.98,50.02 C 452.38,50.08 455.78,50.09 459.18,50.11 C 462.59,50.12 465.99,50.11 469.39,50.1 C 472.79,50.09 476.19,50.08 479.59,50.06 C 482.99,50.05 486.39,50.04 489.8,50.03 C 493.2,50.02 498.3,50.01 500,50.01" stroke="rgba(105, 95, 181.67, 1)" stroke-width="2" />
<path d="M 0,50.01 C 1.7,50.01 6.8,50.02 10.2,50.01 C 13.61,50.01 17.01,50 20.41,49.99 C 23.81,49.98 27.21,49.96 30.61,49.93 C 34.01,49.9 37.41,49.86 40.82,49.82 C 44.22,49.77 47.62,49.71 51.02,49.67 C 54.42,49.62 57.82,49.56 61.22,49.55 C 64.63,49.55 68.03,49.54 71.43,49.63 C 74.83,49.73 78.23,49.86 81.63,50.12 C 85.03,50.38 88.44,50.75 91.84,51.2 C 95.24,51.65 98.64,52.27 102.04,52.83 C 105.44,53.38 108.84,54.11 112.24,54.54 C 115.65,54.97 119.05,55.46 122.45,55.39 C 125.85,55.32 129.25,55.06 132.65,54.12 C 136.05,53.17 139.46,51.7 142.86,49.71 C 146.26,47.72 149.66,44.93 153.06,42.19 C 156.46,39.44 159.86,35.9 163.27,33.23 C 166.67,30.55 170.07,27.53 173.47,26.14 C 176.87,24.76 180.27,23.87 183.67,24.91 C 187.07,25.95 190.48,28.45 193.88,32.39 C 197.28,36.32 200.68,42.33 204.08,48.5 C 207.48,54.67 210.88,62.76 214.29,69.42 C 217.69,76.07 221.09,83.58 224.49,88.42 C 227.89,93.25 231.29,97.31 234.69,98.42 C 238.1,99.52 241.5,98.32 244.9,95.05 C 248.3,91.78 251.7,85.48 255.1,78.8 C 258.5,72.13 261.9,62.86 265.31,55.01 C 268.71,47.15 272.11,38.15 275.51,31.66 C 278.91,25.17 282.31,19.34 285.71,16.07 C 289.12,12.81 292.52,11.59 295.92,12.04 C 299.32,12.49 302.72,15.46 306.12,18.78 C 309.52,22.1 312.93,27.42 316.33,31.96 C 319.73,36.5 323.13,41.93 326.53,46.02 C 329.93,50.12 333.33,53.96 336.73,56.55 C 340.14,59.13 343.54,60.72 346.94,61.54 C 350.34,62.37 353.74,62.03 357.14,61.49 C 360.54,60.96 363.95,59.54 367.35,58.35 C 370.75,57.16 374.15,55.56 377.55,54.34 C 380.95,53.12 384.35,51.91 387.76,51.04 C 391.16,50.17 394.56,49.55 397.96,49.13 C 401.36,48.7 404.76,48.57 408.16,48.49 C 411.56,48.41 414.97,48.55 418.37,48.66 C 421.77,48.76 425.17,48.98 428.57,49.14 C 431.97,49.29 435.37,49.47 438.78,49.6 C 442.18,49.73 445.58,49.83 448.98,49.9 C 452.38,49.98 455.78,50.01 459.18,50.04 C 462.59,50.07 465.99,50.07 469.39,50.08 C 472.79,50.08 476.19,50.07 479.59,50.06 C 482.99,50.05 486.39,50.04 489.8,50.03 C 493.2,50.03 498.3,50.02 500,50.01" stroke="rgba(80, 108.67, 197.44, 1)" stroke-width="2" />
<path d="M 0,50.02 C 1.7,50.02 6.8,50.02 10.2,50.02 C 13.61,50.02 17.01,50.02 20.41,50.01 C 23.81,50 27.21,49.99 30.61,49.96 C 34.01,49.94 37.41,49.9 40.82,49.85 C 44.22,49.8 47.62,49.74 51.02,49.67 C 54.42,49.61 57.82,49.52 61.22,49.47 C 64.63,49.42 68.03,49.35 71.43,49.38 C 74.83,49.41 78.23,49.45 81.63,49.64 C 85.03,49.83 88.44,50.11 91.84,50.53 C 95.24,50.95 98.64,51.54 102.04,52.18 C 105.44,52.82 108.84,53.68 112.24,54.36 C 115.65,55.03 119.05,55.89 122.45,56.25 C 125.85,56.61 129.25,56.94 132.65,56.52 C 136.05,56.1 139.46,55.3 142.86,53.73 C 146.26,52.17 149.66,49.84 153.06,47.14 C 156.46,44.44 159.86,40.77 163.27,37.52 C 166.67,34.27 170.07,30.28 173.47,27.64 C 176.87,25 180.27,22.33 183.67,21.67 C 187.07,21.01 190.48,21.36 193.88,23.67 C 197.28,25.97 200.68,30.23 204.08,35.5 C 207.48,40.77 210.88,48.31 214.29,55.29 C 217.69,62.28 221.09,70.91 224.49,77.41 C 227.89,83.92 231.29,90.62 234.69,94.32 C 238.1,98.02 241.5,100.18 244.9,99.62 C 248.3,99.07 251.7,95.71 255.1,90.98 C 258.5,86.24 261.9,78.51 265.31,71.22 C 268.71,63.92 272.11,54.6 275.51,47.21 C 278.91,39.83 282.31,32.1 285.71,26.91 C 289.12,21.72 292.52,17.85 295.92,16.1 C 299.32,14.35 302.72,14.87 306.12,16.43 C 309.52,17.98 312.93,21.79 316.33,25.42 C 319.73,29.05 323.13,34.13 326.53,38.22 C 329.93,42.3 333.33,46.73 336.73,49.93 C 340.14,53.13 343.54,55.76 346.94,57.44 C 350.34,59.12 353.74,59.78 357.14,60.01 C 360.54,60.23 363.95,59.49 367.35,58.77 C 370.75,58.05 374.15,56.73 377.55,55.69 C 380.95,54.64 384.35,53.41 387.76,52.49 C 391.16,51.58 394.56,50.78 397.96,50.21 C 401.36,49.64 404.76,49.31 408.16,49.09 C 411.56,48.86 414.97,48.86 418.37,48.86 C 421.77,48.87 425.17,49.01 428.57,49.11 C 431.97,49.22 435.37,49.38 438.78,49.49 C 442.18,49.61 445.58,49.72 448.98,49.8 C 452.38,49.88 455.78,49.93 459.18,49.97 C 462.59,50.01 465.99,50.03 469.39,50.04 C 472.79,50.06 476.19,50.05 479.59,50.05 C 482.99,50.05 486.39,50.04 489.8,50.03 C 493.2,50.03 498.3,50.02 500,50.02" stroke="rgba(55, 122.33, 213.22, 1)" stroke-width="2" />
<path d="M 0,50.02 C 1.7,50.02 6.8,50.03 10.2,50.03 C 13.61,50.03 17.01,50.04 20.41,50.03 C 23.81,50.03 27.21,50.02 30.61,50 C 34.01,49.98 37.41,49.96 40.82,49.91 C 44.22,49.86 47.62,49.8 51.02,49.72 C 54.42,49.64 57.82,49.53 61.22,49.45 C 64.63,49.36 68.03,49.24 71.43,49.2 C 74.83,49.16 78.23,49.1 81.63,49.2 C 85.03,49.3 88.44,49.45 91.84,49.8 C 95.24,50.14 98.64,50.63 102.04,51.27 C 105.44,51.92 108.84,52.8 112.24,53.64 C 115.65,54.49 119.05,55.6 122.45,56.35 C 125.85,57.1 129.25,57.98 132.65,58.14 C 136.05,58.3 139.46,58.26 142.86,57.31 C 146.26,56.36 149.66,54.77 153.06,52.43 C 156.46,50.1 159.86,46.76 163.27,43.32 C 166.67,39.89 170.07,35.41 173.47,31.83 C 176.87,28.25 180.27,24.13 183.67,21.85 C 187.07,19.56 190.48,17.73 193.88,18.12 C 197.28,18.52 200.68,20.51 204.08,24.25 C 207.48,27.98 210.88,34.05 214.29,40.53 C 217.69,47.01 221.09,55.71 224.49,63.1 C 227.89,70.49 231.29,79.02 234.69,84.87 C 238.1,90.72 241.5,95.98 244.9,98.21 C 248.3,100.43 251.7,100.43 255.1,98.21 C 258.5,95.98 261.9,90.72 265.31,84.87 C 268.71,79.02 272.11,70.49 275.51,63.1 C 278.91,55.71 282.31,47.01 285.71,40.53 C 289.12,34.05 292.52,27.98 295.92,24.25 C 299.32,20.51 302.72,18.52 306.12,18.12 C 309.52,17.73 312.93,19.56 316.33,21.85 C 319.73,24.13 323.13,28.25 326.53,31.83 C 329.93,35.41 333.33,39.89 336.73,43.32 C 340.14,46.76 343.54,50.1 346.94,52.43 C 350.34,54.77 353.74,56.36 357.14,57.31 C 360.54,58.26 363.95,58.3 367.35,58.14 C 370.75,57.98 374.15,57.1 377.55,56.35 C 380.95,55.6 384.35,54.49 387.76,53.64 C 391.16,52.8 394.56,51.92 397.96,51.27 C 401.36,50.63 404.76,50.14 408.16,49.8 C 411.56,49.45 414.97,49.3 418.37,49.2 C 421.77,49.1 425.17,49.16 428.57,49.2 C 431.97,49.24 435.37,49.36 438.78,49.45 C 442.18,49.53 445.58,49.64 448.98,49.72 C 452.38,49.8 455.78,49.86 459.18,49.91 C 462.59,49.96 465.99,49.98 469.39,50 C 472.79,50.02 476.19,50.03 479.59,50.03 C 482.99,50.04 486.39,50.03 489.8,50.03 C 493.2,50.03 498.3,50.02 500,50.02" stroke="rgba(30, 136, 229, 1)" stroke-width="2" />
</svg>